<svg id="visual" viewBox="0 0 900 300" width="900" height="300" xmlns="http://www.w3.org/2000/svg" xmlns:xlink="http://www.w3.org/1999/xlink" version="1.1"><rect x="0" y="0" width="900" height="300" fill="#FFD700"></rect><path d="M0 260L13.7 257C27.3 254 54.7 248 82 244.2C109.3 240.3 136.7 238.7 163.8 231.8C191 225 218 213 245.2 215.5C272.3 218 299.7 235 327 236.2C354.3 237.3 381.7 222.7 409 220.8C436.3 219 463.7 230 491 237.5C518.3 245 545.7 249 573 247C600.3 245 627.7 237 654.8 231.5C682 226 709 223 736.2 221.7C763.3 220.3 790.7 220.7 818 219.7C845.3 218.7 872.7 216.3 886.3 215.2L900 214L900 301L886.3 301C872.7 301 845.3 301 818 301C790.7 301 763.3 301 736.2 301C709 301 682 301 654.8 301C627.7 301 600.3 301 573 301C545.7 301 518.3 301 491 301C463.7 301 436.3 301 409 301C381.7 301 354.3 301 327 301C299.7 301 272.3 301 245.2 301C218 301 191 301 163.8 301C136.7 301 109.3 301 82 301C54.7 301 27.3 301 13.7 301L0 301Z" fill="#228B22" stroke-linecap="round" stroke-linejoin="miter"></path></svg>