<svg id="visual" viewBox="0 0 900 300" width="900" height="300" xmlns="http://www.w3.org/2000/svg" xmlns:xlink="http://www.w3.org/1999/xlink" version="1.1"><rect x="0" y="0" width="900" height="300" fill="#ff4500"></rect><path d="M0 192L15 190C30 188 60 184 90 191.7C120 199.3 150 218.7 180 232.2C210 245.7 240 253.3 270 255.3C300 257.3 330 253.7 360 244.3C390 235 420 220 450 214.8C480 209.7 510 214.3 540 224.5C570 234.7 600 250.3 630 255.7C660 261 690 256 720 255.2C750 254.3 780 257.7 810 252.8C840 248 870 235 885 228.5L900 222L900 301L885 301C870 301 840 301 810 301C780 301 750 301 720 301C690 301 660 301 630 301C600 301 570 301 540 301C510 301 480 301 450 301C420 301 390 301 360 301C330 301 300 301 270 301C240 301 210 301 180 301C150 301 120 301 90 301C60 301 30 301 15 301L0 301Z" fill="#008080" stroke-linecap="round" stroke-linejoin="miter"></path></svg>