<svg id="visual" viewBox="0 0 900 300" width="900" height="300" xmlns="http://www.w3.org/2000/svg" xmlns:xlink="http://www.w3.org/1999/xlink" version="1.1"><rect x="0" y="0" width="900" height="300" fill="#000080"></rect><path d="M0 185L15 198.5C30 212 60 239 90 246.7C120 254.3 150 242.7 180 235.5C210 228.3 240 225.7 270 217.8C300 210 330 197 360 202.3C390 207.7 420 231.3 450 232.5C480 233.7 510 212.3 540 203.3C570 194.3 600 197.7 630 204.7C660 211.7 690 222.3 720 227.5C750 232.7 780 232.3 810 233.2C840 234 870 236 885 237L900 238L900 301L885 301C870 301 840 301 810 301C780 301 750 301 720 301C690 301 660 301 630 301C600 301 570 301 540 301C510 301 480 301 450 301C420 301 390 301 360 301C330 301 300 301 270 301C240 301 210 301 180 301C150 301 120 301 90 301C60 301 30 301 15 301L0 301Z" fill="#ff4500" stroke-linecap="round" stroke-linejoin="miter"></path></svg>