<svg id="visual" viewBox="0 0 900 300" width="900" height="300" xmlns="http://www.w3.org/2000/svg" xmlns:xlink="http://www.w3.org/1999/xlink" version="1.1"><rect x="0" y="0" width="900" height="300" fill="#0066FF"></rect><path d="M0 234L15 226.8C30 219.7 60 205.3 90 201C120 196.7 150 202.3 180 207.3C210 212.3 240 216.7 270 215.2C300 213.7 330 206.3 360 214C390 221.7 420 244.3 450 250C480 255.7 510 244.3 540 230.3C570 216.3 600 199.7 630 205.3C660 211 690 239 720 250.3C750 261.7 780 256.3 810 244C840 231.7 870 212.3 885 202.7L900 193L900 301L885 301C870 301 840 301 810 301C780 301 750 301 720 301C690 301 660 301 630 301C600 301 570 301 540 301C510 301 480 301 450 301C420 301 390 301 360 301C330 301 300 301 270 301C240 301 210 301 180 301C150 301 120 301 90 301C60 301 30 301 15 301L0 301Z" fill="#ff4500" stroke-linecap="round" stroke-linejoin="miter"></path></svg>