<svg id="visual" viewBox="0 0 900 300" width="900" height="300" xmlns="http://www.w3.org/2000/svg" xmlns:xlink="http://www.w3.org/1999/xlink" version="1.1"><rect x="0" y="0" width="900" height="300" fill="#008080"></rect><path d="M0 220L15 219.2C30 218.3 60 216.7 90 221.5C120 226.3 150 237.7 180 239.2C210 240.7 240 232.3 270 223.7C300 215 330 206 360 203.3C390 200.7 420 204.3 450 215.5C480 226.7 510 245.3 540 251.5C570 257.7 600 251.3 630 243.5C660 235.7 690 226.3 720 225.3C750 224.3 780 231.7 810 227.2C840 222.7 870 206.3 885 198.2L900 190L900 301L885 301C870 301 840 301 810 301C780 301 750 301 720 301C690 301 660 301 630 301C600 301 570 301 540 301C510 301 480 301 450 301C420 301 390 301 360 301C330 301 300 301 270 301C240 301 210 301 180 301C150 301 120 301 90 301C60 301 30 301 15 301L0 301Z" fill="#FFD700" stroke-linecap="round" stroke-linejoin="miter"></path></svg>